<svg xmlns="http://www.w3.org/2000/svg" width="60" height="60" viewBox="0 0 60 60">
  <g id="Group_10297" data-name="Group 10297" transform="translate(-1112 -8441)">
    <g id="Group_15564" data-name="Group 15564">
      <circle id="Ellipse_42" data-name="Ellipse 42" cx="30" cy="30" r="30" transform="translate(1112 8441)" fill="#0d4030"/>
      <path id="Path_101" data-name="Path 101" d="M28.294,11.042a9.7,9.7,0,0,0-9.567-9.9A9.717,9.717,0,0,0,9.14,11.049,8.841,8.841,0,0,0,10.233,15.7h-.013l8.193,15.8c.308.422.63-.02.63-.02-.275.416,8.193-15.775,8.193-15.775h-.007A8.894,8.894,0,0,0,28.294,11.042Zm-13.978-.3a4.509,4.509,0,0,1,4.411-4.6,4.509,4.509,0,0,1,4.411,4.6,4.509,4.509,0,0,1-4.411,4.6A4.509,4.509,0,0,1,14.316,10.741Z" transform="translate(1122.879 8454.843)" fill="#fff" fill-rule="evenodd"/>
    </g>
  </g>
</svg>
