<svg xmlns="http://www.w3.org/2000/svg" width="62" height="62" viewBox="0 0 62 62">
  <g id="Group_15563" data-name="Group 15563" transform="translate(-676 -8473)">
    <circle id="Ellipse_42" data-name="Ellipse 42" cx="31" cy="31" r="31" transform="translate(676 8473)" fill="#0d4030"/>
    <path id="Path_96" data-name="Path 96" d="M30.117,7.5H6.874A3.815,3.815,0,0,0,3,11.255V27.346A3.815,3.815,0,0,0,6.874,31.1H30.117a3.815,3.815,0,0,0,3.874-3.755V11.255A3.815,3.815,0,0,0,30.117,7.5Zm-.981,6.208-9.961,7.509a1.114,1.114,0,0,1-1.358,0L7.855,13.708a1.04,1.04,0,0,1-.428-.994,1.084,1.084,0,0,1,.679-.858,1.139,1.139,0,0,1,1.107.164L18.5,19.014l9.282-6.994a1.127,1.127,0,0,1,1.542.193A1.051,1.051,0,0,1,29.135,13.708Z" transform="translate(689 8484.5)" fill="#fff"/>
  </g>
</svg>
