<svg xmlns="http://www.w3.org/2000/svg" width="121" height="22" viewBox="0 0 121 22">
    <g fill="none" fill-rule="evenodd">
        <g fill-rule="nonzero">
            <g>
                <path fill="#222" d="M3.276 21.812L7.862 7.607H0L1.935 1.71h23.079l-1.935 5.897h-7.862l-4.19 12.988c-.236.73-.915 1.224-1.681 1.225l-6.07-.008zM24.507 21.812c-1.427 0-2.44-.229-3.037-.687-.601-.469-.935-1.202-.893-1.964 0-.528.071-1.054.209-1.564.136-.524.313-1.038.53-1.534.239-.582.549-1.133.923-1.638.352-.47.786-.873 1.28-1.19.537-.336 1.126-.578 1.744-.716.757-.169 1.53-.25 2.306-.239h7.178c.075-.21.115-.431.119-.654.012-.194-.078-.38-.239-.49-.287-.137-.605-.194-.922-.165h-10.3l1.37-4.257h11.586c1.983 0 3.432.307 4.347.922.915.615 1.372 1.539 1.37 2.77-.018.852-.169 1.695-.448 2.5l-2.889 8.906H24.507zm9.172-6.226h-3.96c-.333-.001-.662.066-.968.196-.284.112-.534.295-.729.53-.11.129-.2.275-.265.432-.07.168-.104.348-.103.53-.021.134.062.262.193.297.2.047.405.066.61.058h4.556l.666-2.043zM57.621 21.812l-2.77-4.527-4.596 3.734c-.628.514-1.415.794-2.226.795h-8.304l11.792-8.606-5.243-6.494h7.687l2.322 3.305L60.9 6.714h8.962l-10.157 7.175 5.717 7.923h-7.8zM66.702 21.812l4.6-14.205h7.156l-4.19 12.988c-.236.73-.915 1.224-1.681 1.225l-5.885-.008zm5.243-16.2l1.477-4.552H80.6l-.398 1.217c-.651 1.992-2.509 3.339-4.604 3.34l-3.653-.006z" transform="translate(-177 -24) translate(177 24)"/>
                <path fill="#EFA603" d="M103.093 21.812c-1.428 0-2.44-.229-3.038-.687-.602-.468-.936-1.202-.893-1.964 0-.528.071-1.054.21-1.564.135-.524.312-1.038.53-1.534.238-.582.548-1.133.922-1.638.352-.47.786-.873 1.28-1.19.536-.335 1.125-.577 1.741-.716.758-.17 1.533-.25 2.309-.239h7.178c.073-.21.114-.431.12-.654.011-.194-.08-.38-.24-.49-.287-.137-.605-.194-.922-.165h-9.95l1.37-4.257h11.233c1.987 0 3.436.307 4.35.922.914.615 1.37 1.539 1.368 2.77-.017.852-.167 1.695-.446 2.5l-2.889 8.906h-14.233zm9.17-6.226h-3.96c-.332-.001-.66.066-.967.196-.283.112-.534.295-.729.53-.11.129-.2.275-.265.432-.07.168-.104.348-.103.53-.021.134.062.262.193.297.2.047.405.067.61.058h3.12c.856 0 1.614-.551 1.879-1.365l.223-.678zM101.96 5.182L103.579 0H99c-1.53 0-2.886.984-3.361 2.439l-1.392 4.275h-5.656c-2.161 0-4.002.413-5.524 1.238-1.536.851-2.809 2.108-3.679 3.634-.524.87-.944 1.8-1.25 2.77-.31.94-.47 1.925-.475 2.915 0 1.49.49 2.616 1.473 3.38.983.763 2.466 1.146 4.45 1.148h5.957c2.242 0 4.158-.577 5.749-1.729 1.59-1.152 2.73-2.78 3.422-4.885L101.96 5.17v.013zm-10.273 9.452c-.163.442-.452.825-.832 1.103-.485.321-1.06.478-1.641.445h-2.56c-.412.03-.825-.036-1.207-.194-.228-.128-.36-.377-.341-.638-.001-.253.039-.505.119-.745.076-.228.175-.448.297-.655.271-.452.644-.835 1.09-1.118.566-.35 1.224-.52 1.889-.49h2.322c.376 0 .686 0 .925-.017.239-.009.477-.033.713-.074l-.774 2.383z" transform="translate(-177 -24) translate(177 24)"/>
            </g>
        </g>
    </g>
</svg>
